<svg xmlns="http://www.w3.org/2000/svg" viewBox="0 0 160 160" role="img" aria-label="Indian client portrait">
  <rect width="160" height="160" rx="32" fill="#f4efe4"/>
  <circle cx="80" cy="62" r="30" fill="#d19a63"/>
  <path d="M44 58c3-18 22-32 36-32 20 0 37 14 40 32-12-7-25-11-40-11s-28 4-36 11z" fill="#2b1d18"/>
  <path d="M58 54c6-8 14-12 22-12s16 4 22 12" fill="#2b1d18"/>
  <rect x="50" y="92" width="60" height="42" rx="18" fill="#6a2c2c"/>
  <circle cx="68" cy="64" r="4" fill="#3b2a22"/>
  <circle cx="92" cy="64" r="4" fill="#3b2a22"/>
  <path d="M68 78c6 5 18 5 24 0" stroke="#8c5b3a" stroke-width="4" fill="none" stroke-linecap="round"/>
</svg>
