<svg xmlns="http://www.w3.org/2000/svg" viewBox="0 0 160 160" role="img" aria-label="Indian client portrait">
  <rect width="160" height="160" rx="32" fill="#f6efe7"/>
  <circle cx="80" cy="64" r="31" fill="#b77a4d"/>
  <path d="M42 58c4-20 24-34 38-34 20 0 38 14 38 34-12-8-25-12-38-12s-26 4-38 12z" fill="#2a1b17"/>
  <path d="M52 54c8-10 20-14 28-14s20 4 28 14" fill="#2a1b17"/>
  <rect x="48" y="92" width="64" height="44" rx="20" fill="#143e3c"/>
  <circle cx="68" cy="66" r="4" fill="#3b2a22"/>
  <circle cx="92" cy="66" r="4" fill="#3b2a22"/>
  <path d="M66 80c7 6 21 6 28 0" stroke="#6f452f" stroke-width="4" fill="none" stroke-linecap="round"/>
</svg>
